#VRML V2.0 utf8
WorldInfo{
      title "gIo0EY Generation Date: 06-03-2002"
      info[ 
      "Author: Jim McNeill"
      ]
}
#
# HEDRON --- Polyhedron Generator, Version: 3.7 - Build Date 14 February 2002
#            FRAME MODEL
#
# Edge Deformation:       1.032507412901396D-14 
# Polygonal Deformation:  6.155754351224568D-14 
#
#
#
NavigationInfo {
 type "EXAMINE"
 headlight TRUE
 avatarSize [0, 0, 0]
}
Viewpoint {
 position 0 0 2.474873734152916 
 description "Wide Angle"
}
 
Viewpoint {
 position 0 0 12.37436867076458 
 fieldOfView 0.15
 description "Telephoto"
}
 
Viewpoint {
 position 0 0 0
 description "Origin"
}
 
Viewpoint {
 position 0 0 0
 fieldOfView 1.0
 description "Origin Wide Angle"
}
 
Viewpoint {
 position 0 0 0
 fieldOfView 1.57
 description "Origin Fish-Eye"
}
 
Transform {
  children[
  Shape{
    geometry IndexedFaceSet{
      solid FALSE
      convex FALSE
      colorPerVertex FALSE
      color Color{
color [
        0 0 0,0 0 0,
        1 1 0,      #  2 yellow   - highlighting
        0 0 1,      #  3 blue     - triangle
        1 .5 0,     #  4 orange   - square
        0 1 0,      #  5 green    - pentagon
        0 .6 1,     #  6 cyan     - hexagon
        .8 .8 .8,   #  7 grey     - heptagon
        1 0 1,      #  8 pink     - octagon
        .8 .8 .8,   #  9 grey     - enneagon
        1 0 0,      # 10 red      - decagon
        .8 .8 .8,   # 11 grey     - hendecagon
        .8 .8 .8,   # 12 grey     - dodecagon+
        0 0 0,0 0 0,
        0 .6 0,     # 15 dk green - pentagram
        0 0 0,
        .8 .8 .8,   # 17 grey     - heptagram
        .5 0 .5,    # 18 purple   - octagram
        .8 .8 .8,   # 19 grey     - enneagram
        .7 .2 0,    # 20 brown    - decagram
        .8 .8 .8    # 21 grey     - hendecagram
        .8 .8 .8    # 22 grey     - dodecagram+
        ]
      }
    coord Coordinate{
         point[
           0.31712059 -0.20377898  0.59825468,
           0.06215821 -0.11764690  0.69447503,
           0.05590121  0.16791617  0.68460150,
           0.30699655  0.25827178  0.58227897,
           0.46843901  0.02855154  0.52891370,
           0.48430499 -0.39113083  0.33535854,
           0.16490678 -0.50606494  0.46551480,
          -0.09005560 -0.41993286  0.56173515,
          -0.29541357 -0.12772420  0.62961683,
          -0.30167057  0.15783887  0.61974330,
          -0.10919057  0.45336786  0.53154022,
           0.14190477  0.54372346  0.42921770,
           0.46622193  0.43416177  0.30682352,
           0.62766438  0.20444153  0.25345825,
           0.63562341 -0.15880031  0.26601757,
           0.44200445 -0.54331398  0.09716984,
           0.12260625 -0.65824809  0.22732610,
          -0.28993155 -0.51888346  0.38301390,
          -0.49528952 -0.22667481  0.45089557,
          -0.50541356  0.23537595  0.43491987,
          -0.31293356  0.53090494  0.34671679,
           0.09334724  0.67710338  0.18115547,
           0.41766439  0.56754169  0.05876129,
           0.67888377  0.19584654 -0.02758553,
           0.68684280 -0.16739530 -0.01502621,
           0.56717970 -0.40503783 -0.11937985,
          -0.15849930 -0.66617038  0.17633774,
          -0.62507665 -0.00226657  0.33056624,
          -0.18775831  0.66918110  0.13016711,
           0.54909664  0.42025477 -0.14791487,
           0.18775831 -0.66918110 -0.13016711,
          -0.54909664 -0.42025477  0.14791487,
          -0.56717970  0.40503783  0.11937985,
           0.15849930  0.66617038 -0.17633774,
           0.62507665  0.00226657 -0.33056624,
           0.31293356 -0.53090494 -0.34671679,
          -0.09334724 -0.67710338 -0.18115547,
          -0.41766439 -0.56754169 -0.05876129,
          -0.67888377 -0.19584654  0.02758553,
          -0.68684280  0.16739530  0.01502621,
          -0.44200445  0.54331398 -0.09716984,
          -0.12260625  0.65824809 -0.22732610,
           0.28993155  0.51888346 -0.38301390,
           0.49528952  0.22667481 -0.45089557,
           0.50541356 -0.23537595 -0.43491987,
           0.10919057 -0.45336786 -0.53154022,
          -0.14190477 -0.54372346 -0.42921770,
          -0.46622193 -0.43416177 -0.30682352,
          -0.62766438 -0.20444153 -0.25345825,
          -0.63562341  0.15880031 -0.26601757,
          -0.48430499  0.39113083 -0.33535854,
          -0.16490678  0.50606494 -0.46551480,
           0.09005560  0.41993286 -0.56173515,
           0.29541357  0.12772420 -0.62961683,
           0.30167057 -0.15783887 -0.61974330,
          -0.05590121 -0.16791617 -0.68460150,
          -0.30699655 -0.25827178 -0.58227897,
          -0.46843901 -0.02855154 -0.52891370,
          -0.31712059  0.20377898 -0.59825468,
          -0.06215821  0.11764690 -0.69447503,
          -0.03574648 -0.39443506  0.25836015,
          -0.31660548  0.00520576  0.35119891,
          -0.05335911  0.40938765  0.23056746,
           0.39019508  0.25954498  0.06317437,
           0.40108029 -0.23724478  0.08035120,
           0.17242960  0.01898804  0.43990259,
           0.05335911 -0.40938765 -0.23056746,
          -0.39019508 -0.25954498 -0.06317437,
          -0.40108029  0.23724478 -0.08035120,
           0.03574648  0.39443506 -0.25836015,
           0.31660548 -0.00520576 -0.35119891,
          -0.17242960 -0.01898804 -0.43990259,
           0.40108029 -0.23724478  0.08035120,
          -0.03574648 -0.39443506  0.25836015,
          -0.31660548  0.00520576  0.35119891,
          -0.05335911  0.40938765  0.23056746,
           0.39019508  0.25954498  0.06317437,
           0.17242960  0.01898804  0.43990259,
           0.05335911 -0.40938765 -0.23056746,
          -0.39019508 -0.25954498 -0.06317437,
          -0.40108029  0.23724478 -0.08035120,
           0.03574648  0.39443506 -0.25836015,
           0.31660548 -0.00520576 -0.35119891,
          -0.17242960 -0.01898804 -0.43990259,
           0.25195980 -0.23898573  0.53548941,
           0.35378248 -0.51582185  0.12693541,
          -0.08271062 -0.62490557 -0.09999407,
          -0.45430088 -0.41548688  0.16830980,
          -0.24746318 -0.17697530  0.56106020,
          -0.00778467 -0.09496081  0.63108531,
          -0.29485718 -0.42210462  0.37713891,
          -0.61198509 -0.15872002  0.08734430,
          -0.52090841  0.33120443  0.16218779,
          -0.14749201  0.37060979  0.49823821,
           0.03572509  0.21250654  0.60075912,
          -0.42193673  0.26750913  0.39718395,
          -0.37023681  0.51858301 -0.03664954,
           0.11937731  0.61875262 -0.10119822,
           0.37027557  0.42958696  0.29274200,
           0.32236008  0.25850689  0.48642060,
           0.14816346  0.59999663  0.15936896,
           0.30844631  0.47099376 -0.30062032,
           0.58170319  0.04977586 -0.25785770,
           0.59030237 -0.08154825  0.22856034,
           0.45600048 -0.02053068  0.44608170,
           0.62758430  0.11587146 -0.00765383,
           0.48614727 -0.23572105 -0.33976940,
           0.22715056 -0.58941930 -0.09129258,
           0.20851882 -0.45642434  0.39439010,
           0.42671377 -0.31539787  0.35466375,
           0.54360027  0.17019550  0.28788725,
           0.14754152  0.44682529  0.43119078,
          -0.21412275  0.13219853  0.58653373,
          -0.04158482 -0.33888128  0.53923743,
           0.10981900 -0.61229327  0.14277102,
          -0.33068472 -0.53833680 -0.09048719,
          -0.24045291 -0.28617699 -0.51733157,
           0.25581712 -0.20429012 -0.54787770,
           0.47229707 -0.40584107 -0.13991186,
          -0.47588268 -0.23274465  0.35596690,
          -0.63206353  0.08855608  0.00058561,
          -0.45399041 -0.07120702 -0.44290981,
          -0.18775431 -0.49124678 -0.36162377,
          -0.20128448 -0.59108252  0.13210919,
          -0.32921082  0.47667736  0.26785399,
          -0.17402954  0.58050520 -0.20018557,
          -0.33262467  0.20995881 -0.50261810,
          -0.58582313 -0.12287929 -0.22149212,
          -0.58371326  0.04196184  0.25468581,
           0.34713905  0.53557564  0.00020133,
           0.41042984  0.25765359 -0.41534179,
          -0.04407903  0.16875888 -0.61394161,
          -0.38827176  0.39174099 -0.32113994,
          -0.14648569  0.61844622  0.05842127,
           0.61847440 -0.13744522 -0.07710420,
           0.31361162 -0.43382880 -0.34754446,
           0.01288625 -0.13786990 -0.62303504,
           0.13189052  0.34142633 -0.52285732,
           0.50616459  0.34168880 -0.18545350,
           0.05718630 -0.37315484 -0.51461832,
           0.20902118  0.10063217 -0.59458401,
          -0.16629595  0.40910813 -0.46078523,
          -0.55008957  0.12596973 -0.29812735,
          -0.41196994 -0.35749537 -0.33139803,
           0.33262467 -0.20995881  0.50261810,
           0.17402954 -0.58050520  0.20018557,
           0.32921082 -0.47667736 -0.26785399,
           0.58371326 -0.04196184 -0.25468581,
           0.58582313  0.12287929  0.22149212,
           0.04407903 -0.16875888  0.61394161,
          -0.41042984 -0.25765359  0.41534179,
          -0.34713905 -0.53557564 -0.00020133,
           0.14648569 -0.61844622 -0.05842127,
           0.38827176 -0.39174099  0.32113994,
          -0.01288625  0.13786990  0.62303504,
          -0.31361162  0.43382880  0.34754446,
          -0.61847440  0.13744522  0.07710420,
          -0.50616459 -0.34168880  0.18545350,
          -0.13189052 -0.34142633  0.52285732,
           0.24045291  0.28617699  0.51733157,
           0.33068472  0.53833680  0.09048719,
          -0.10981900  0.61229327 -0.14277102,
          -0.47229707  0.40584107  0.13991186,
          -0.25581712  0.20429012  0.54787770,
           0.45399041  0.07120702  0.44290981,
           0.63206353 -0.08855608 -0.00058561,
           0.47588268  0.23274465 -0.35596690,
           0.20128448  0.59108252 -0.13210919,
           0.18775431  0.49124678  0.36162377,
           0.16629595 -0.40910813  0.46078523,
           0.55008957 -0.12596973  0.29812735,
           0.41196994  0.35749537  0.33139803,
          -0.05718630  0.37315484  0.51461832,
          -0.20902118 -0.10063217  0.59458401,
           0.37023681 -0.51858301  0.03664954,
           0.42193673 -0.26750913 -0.39718395,
          -0.03572509 -0.21250654 -0.60075912,
          -0.37027557 -0.42958696 -0.29274200,
          -0.11937731 -0.61875262  0.10119822,
          -0.30844631 -0.47099376  0.30062032,
          -0.14816346 -0.59999663 -0.15936896,
          -0.32236008 -0.25850689 -0.48642060,
          -0.59030237  0.08154825 -0.22856034,
          -0.58170319 -0.04977586  0.25785770,
          -0.48614727  0.23572105  0.33976940,
          -0.62758430 -0.11587146  0.00765383,
          -0.45600048  0.02053068 -0.44608170,
          -0.20851882  0.45642434 -0.39439010,
          -0.22715056  0.58941930  0.09129258,
           0.08271062  0.62490557  0.09999407,
          -0.35378248  0.51582185 -0.12693541,
          -0.25195980  0.23898573 -0.53548941,
           0.24746318  0.17697530 -0.56106020,
           0.45430088  0.41548688 -0.16830980,
           0.61198509  0.15872002 -0.08734430,
           0.29485718  0.42210462 -0.37713891,
           0.00778467  0.09496081 -0.63108531,
           0.14749201 -0.37060979 -0.49823821,
           0.52090841 -0.33120443 -0.16218779,
          -0.14754152 -0.44682529 -0.43119078,
           0.21412275 -0.13219853 -0.58653373,
           0.04158482  0.33888128 -0.53923743,
          -0.42671377  0.31539787 -0.35466375,
          -0.54360027 -0.17019550 -0.28788725,
           0.30333076 -0.15671162  0.56369308,
          -0.26124624  0.50162171  0.33829578,
           0.51119915  0.40247064 -0.10493225,
           0.09196776 -0.10386679  0.64426050,
           0.41052866  0.51011492  0.07461207,
           0.54450588 -0.36139117 -0.08501610,
           0.07033062  0.12740704  0.64275891,
           0.63570283 -0.17305785  0.01583864,
          -0.12178874 -0.61999870  0.18731547,
           0.26832112  0.21749729  0.56126346,
           0.10309322 -0.60377505  0.24319837,
          -0.56688820 -0.01596512  0.33570948,
           0.41232313  0.04190230  0.51239809,
          -0.45125179 -0.18680015  0.44248784,
          -0.17568016  0.61595568  0.15509045,
           0.46299296 -0.37501538  0.28163620,
           0.47283595  0.17858602 -0.42290799,
          -0.09813917 -0.51175012 -0.40348294,
           0.11982327 -0.47788987  0.43770038,
          -0.48083534  0.18649822  0.41028497,
          -0.44571663 -0.41345910 -0.25437419,
          -0.09471896 -0.41631221  0.50202633,
           0.26639034 -0.51575173 -0.31201652,
          -0.57645780 -0.22321539 -0.22844969,
          -0.29373171 -0.08991866  0.58305599,
           0.05462788  0.63126879  0.18120010,
          -0.59858591  0.16682935 -0.21950135,
          -0.31201535  0.14079242  0.56315352,
          -0.41595475 -0.50920438 -0.04483881,
          -0.47566985  0.34983997 -0.29269123,
          -0.08382094  0.44627254  0.47763254,
           0.62235431  0.21551362 -0.02338716,
          -0.13374696  0.49349318 -0.41580549,
           0.11140001  0.52639884  0.38054207,
          -0.63122159  0.18917985  0.00939463,
           0.06493915  0.41547293 -0.50742794,
           0.45946604  0.38968571  0.26712166,
           0.43776531 -0.48620779  0.07925583,
           0.30640860  0.11509407 -0.57200096,
           0.59038149  0.20761209  0.20655480,
          -0.08191873  0.61425769 -0.22426498,
           0.29826595 -0.11701903 -0.57590098,
           0.58532508 -0.18147807  0.24244223,
          -0.24404339 -0.50414029  0.34727995,
           0.11360074 -0.44543327 -0.47223093,
           0.14907959 -0.62552779 -0.14425059,
          -0.62749841 -0.20138359 -0.00289209,
          -0.07486485  0.07953065 -0.64991392,
          -0.52830207 -0.37813451  0.11058567,
          -0.43233923  0.48529725 -0.10902909,
          -0.08636101 -0.15201970 -0.63541306,
          -0.52847549  0.38600384  0.07767024,
           0.23956215  0.48801829 -0.37251322,
          -0.29533137 -0.20837261 -0.55107006,
           0.14879899  0.61087402 -0.19750888,
           0.45966086 -0.19698086 -0.42921837,
          -0.41298599 -0.01165028 -0.51344407,
           0.56755105 -0.01428690 -0.33466350,
          -0.07621204 -0.62305466 -0.20077995,
          -0.27673019  0.16628373 -0.57453294,
           0.27673019 -0.16628373  0.57453294,
           0.07621204  0.62305466  0.20077995,
          -0.56755105  0.01428690  0.33466350,
           0.07486485 -0.07953065  0.64991392,
           0.62749841  0.20138359  0.00289209,
          -0.14907959  0.62552779  0.14425059,
           0.08636101  0.15201970  0.63541306,
           0.43233923 -0.48529725  0.10902909,
           0.52830207  0.37813451 -0.11058567,
           0.29533137  0.20837261  0.55107006,
          -0.23956215 -0.48801829  0.37251322,
           0.52847549 -0.38600384 -0.07767024,
           0.41298599  0.01165028  0.51344407,
          -0.45966086  0.19698086  0.42921837,
          -0.14879899 -0.61087402  0.19750888,
           0.47566985 -0.34983997  0.29269123,
           0.41595475  0.50920438  0.04483881,
           0.31201535 -0.14079242 -0.56315352,
           0.13374696 -0.49349318  0.41580549,
          -0.62235431 -0.21551362  0.02338716,
           0.08382094 -0.44627254 -0.47763254,
          -0.06493915 -0.41547293  0.50742794,
           0.63122159 -0.18917985 -0.00939463,
          -0.11140001 -0.52639884 -0.38054207,
          -0.30640860 -0.11509407  0.57200096,
          -0.43776531  0.48620779 -0.07925583,
          -0.45946604 -0.38968571 -0.26712166,
          -0.29826595  0.11701903  0.57590098,
           0.08191873 -0.61425769  0.22426498,
          -0.59038149 -0.20761209 -0.20655480,
          -0.11360074  0.44543327  0.47223093,
           0.24404339  0.50414029 -0.34727995,
          -0.58532508  0.18147807 -0.24244223,
           0.09813917  0.51175012  0.40348294,
          -0.47283595 -0.17858602  0.42290799,
          -0.46299296  0.37501538 -0.28163620,
           0.44571663  0.41345910  0.25437419,
           0.48083534 -0.18649822 -0.41028497,
          -0.11982327  0.47788987 -0.43770038,
           0.57645780  0.22321539  0.22844969,
          -0.26639034  0.51575173  0.31201652,
           0.09471896  0.41631221 -0.50202633,
           0.59858591 -0.16682935  0.21950135,
          -0.05462788 -0.63126879 -0.18120010,
           0.29373171  0.08991866 -0.58305599,
           0.17568016 -0.61595568 -0.15509045,
           0.45125179  0.18680015 -0.44248784,
          -0.41232313 -0.04190230 -0.51239809,
          -0.51119915 -0.40247064  0.10493225,
           0.26124624 -0.50162171 -0.33829578,
          -0.30333076  0.15671162 -0.56369308,
          -0.54450588  0.36139117  0.08501610,
          -0.41052866 -0.51011492 -0.07461207,
          -0.09196776  0.10386679 -0.64426050,
           0.12178874  0.61999870 -0.18731547,
          -0.63570283  0.17305785 -0.01583864,
          -0.07033062 -0.12740704 -0.64275891,
           0.56688820  0.01596512 -0.33570948,
          -0.10309322  0.60377505 -0.24319837,
          -0.26832112 -0.21749729 -0.56126346,
           0.29809336 -0.19155224  0.56235940,
           0.08774640  0.63647718  0.17028614,
          -0.29809336  0.19155224 -0.56235940,
          -0.08774640 -0.63647718 -0.17028614,
           0.29809336 -0.19155224  0.56235940,
          -0.29415755  0.49905064  0.32591379,
          -0.29809336  0.19155224 -0.56235940,
           0.29415755 -0.49905064 -0.32591379,
           0.29809336 -0.19155224  0.56235940,
          -0.58757206 -0.00213058  0.31073227,
          -0.29809336  0.19155224 -0.56235940,
           0.58757206  0.00213058 -0.31073227,
           0.29809336 -0.19155224  0.56235940,
           0.51615084  0.39503949 -0.13903998,
          -0.29809336  0.19155224 -0.56235940,
          -0.51615084 -0.39503949  0.13903998,
           0.05842872 -0.11058809  0.65280653,
           0.39260453  0.53348919  0.05523561,
          -0.05842872  0.11058809 -0.65280653,
          -0.39260453 -0.53348919 -0.05523561,
           0.05842872 -0.11058809  0.65280653,
           0.63815074  0.18409574 -0.02593040,
          -0.05842872  0.11058809 -0.65280653,
          -0.63815074 -0.18409574  0.02593040,
           0.05842872 -0.11058809  0.65280653,
           0.53314892 -0.38073556 -0.11221706,
          -0.05842872  0.11058809 -0.65280653,
          -0.53314892  0.38073556  0.11221706,
           0.05842872 -0.11058809  0.65280653,
          -0.17649281  0.62903023  0.12235708,
          -0.05842872  0.11058809 -0.65280653,
           0.17649281 -0.62903023 -0.12235708,
           0.05254714  0.15784120  0.64352541,
           0.41548419 -0.51071515  0.09133965,
          -0.05254714 -0.15784120 -0.64352541,
          -0.41548419  0.51071515 -0.09133965,
           0.05254714  0.15784120  0.64352541,
           0.64563223 -0.15735159 -0.01412464,
          -0.05254714 -0.15784120 -0.64352541,
          -0.64563223  0.15735159  0.01412464,
           0.05254714  0.15784120  0.64352541,
          -0.14898935 -0.62620016  0.16575748,
          -0.05254714 -0.15784120 -0.64352541,
           0.14898935  0.62620016 -0.16575748,
           0.05254714  0.15784120  0.64352541,
           0.51615084  0.39503949 -0.13903998,
          -0.05254714 -0.15784120 -0.64352541,
          -0.51615084 -0.39503949  0.13903998,
           0.28857676  0.24277547  0.54734224,
           0.11524987 -0.61875321  0.21368654,
          -0.28857676 -0.24277547 -0.54734224,
          -0.11524987  0.61875321 -0.21368654,
           0.28857676  0.24277547  0.54734224,
          -0.27253566 -0.48775046  0.36003307,
          -0.28857676 -0.24277547 -0.54734224,
           0.27253566  0.48775046 -0.36003307,
           0.28857676  0.24277547  0.54734224,
           0.53314892 -0.38073556 -0.11221706,
          -0.28857676 -0.24277547 -0.54734224,
          -0.53314892  0.38073556  0.11221706,
           0.28857676  0.24277547  0.54734224,
          -0.58757206 -0.00213058  0.31073227,
          -0.28857676 -0.24277547 -0.54734224,
           0.58757206  0.00213058 -0.31073227,
           0.44033267  0.02683845  0.49717888,
          -0.46557215 -0.21307432  0.42384184,
          -0.44033267 -0.02683845 -0.49717888,
           0.46557215  0.21307432 -0.42384184,
           0.44033267  0.02683845  0.49717888,
          -0.47508875  0.22125339  0.40882468,
          -0.44033267 -0.02683845 -0.49717888,
           0.47508875 -0.22125339 -0.40882468,
           0.44033267  0.02683845  0.49717888,
          -0.14898935 -0.62620016  0.16575748,
          -0.44033267 -0.02683845 -0.49717888,
           0.14898935  0.62620016 -0.16575748,
           0.44033267  0.02683845  0.49717888,
          -0.17649281  0.62903023  0.12235708,
          -0.44033267 -0.02683845 -0.49717888,
           0.17649281 -0.62903023 -0.12235708,
           0.45524669 -0.36766298  0.31523703,
          -0.28357033  0.14836854  0.58255870,
          -0.45524669  0.36766298 -0.31523703,
           0.28357033 -0.14836854 -0.58255870,
           0.45524669 -0.36766298  0.31523703,
           0.13339049  0.51110006  0.40346463,
          -0.45524669  0.36766298 -0.31523703,
          -0.13339049 -0.51110006 -0.40346463,
           0.45524669 -0.36766298  0.31523703,
          -0.46557215 -0.21307432  0.42384184,
          -0.45524669  0.36766298 -0.31523703,
           0.46557215  0.21307432 -0.42384184,
           0.45524669 -0.36766298  0.31523703,
           0.39260453  0.53348919  0.05523561,
          -0.45524669  0.36766298 -0.31523703,
          -0.39260453 -0.53348919 -0.05523561,
           0.15501238 -0.47570104  0.43758392,
          -0.10263913  0.42616579  0.49964781,
          -0.15501238  0.47570104 -0.43758392,
           0.10263913 -0.42616579 -0.49964781,
           0.15501238 -0.47570104  0.43758392,
           0.43824861  0.40811206  0.28841411,
          -0.15501238  0.47570104 -0.43758392,
          -0.43824861 -0.40811206 -0.28841411,
           0.15501238 -0.47570104  0.43758392,
          -0.47508875  0.22125339  0.40882468,
          -0.15501238  0.47570104 -0.43758392,
           0.47508875 -0.22125339 -0.40882468,
           0.15501238 -0.47570104  0.43758392,
           0.63815074  0.18409574 -0.02593040,
          -0.15501238  0.47570104 -0.43758392,
          -0.63815074 -0.18409574  0.02593040,
          -0.08465226 -0.39473689  0.52803105,
           0.13339049  0.51110006  0.40346463,
           0.08465226  0.39473689 -0.52803105,
          -0.13339049 -0.51110006 -0.40346463,
          -0.08465226 -0.39473689  0.52803105,
           0.59000452  0.19217504  0.23825075,
           0.08465226  0.39473689 -0.52803105,
          -0.59000452 -0.19217504 -0.23825075,
          -0.08465226 -0.39473689  0.52803105,
          -0.29415755  0.49905064  0.32591379,
           0.08465226  0.39473689 -0.52803105,
           0.29415755 -0.49905064 -0.32591379,
          -0.08465226 -0.39473689  0.52803105,
           0.64563223 -0.15735159 -0.01412464,
           0.08465226  0.39473689 -0.52803105,
          -0.64563223  0.15735159  0.01412464,
          -0.27768876 -0.12006075  0.59183982,
           0.43824861  0.40811206  0.28841411,
           0.27768876  0.12006075 -0.59183982,
          -0.43824861 -0.40811206 -0.28841411,
          -0.27768876 -0.12006075  0.59183982,
           0.59748600 -0.14927229  0.25005651,
           0.27768876  0.12006075 -0.59183982,
          -0.59748600  0.14927229 -0.25005651,
          -0.27768876 -0.12006075  0.59183982,
           0.41548419 -0.51071515  0.09133965,
           0.27768876  0.12006075 -0.59183982,
          -0.41548419  0.51071515 -0.09133965,
          -0.27768876 -0.12006075  0.59183982,
           0.08774640  0.63647718  0.17028614,
           0.27768876  0.12006075 -0.59183982,
          -0.08774640 -0.63647718 -0.17028614,
          -0.28357033  0.14836854  0.58255870,
           0.59000452  0.19217504  0.23825075,
           0.28357033 -0.14836854 -0.58255870,
          -0.59000452 -0.19217504 -0.23825075,
          -0.28357033  0.14836854  0.58255870,
           0.11524987 -0.61875321  0.21368654,
           0.28357033 -0.14836854 -0.58255870,
          -0.11524987  0.61875321 -0.21368654,
          -0.28357033  0.14836854  0.58255870,
           0.39260453  0.53348919  0.05523561,
           0.28357033 -0.14836854 -0.58255870,
          -0.39260453 -0.53348919 -0.05523561,
          -0.10263913  0.42616579  0.49964781,
           0.59748600 -0.14927229  0.25005651,
           0.10263913 -0.42616579 -0.49964781,
          -0.59748600  0.14927229 -0.25005651,
          -0.10263913  0.42616579  0.49964781,
          -0.27253566 -0.48775046  0.36003307,
           0.10263913 -0.42616579 -0.49964781,
           0.27253566  0.48775046 -0.36003307,
          -0.10263913  0.42616579  0.49964781,
           0.63815074  0.18409574 -0.02593040,
           0.10263913 -0.42616579 -0.49964781,
          -0.63815074 -0.18409574  0.02593040,
           0.13339049  0.51110006  0.40346463,
          -0.46557215 -0.21307432  0.42384184,
          -0.13339049 -0.51110006 -0.40346463,
           0.46557215  0.21307432 -0.42384184,
           0.13339049  0.51110006  0.40346463,
           0.64563223 -0.15735159 -0.01412464,
          -0.13339049 -0.51110006 -0.40346463,
          -0.64563223  0.15735159  0.01412464,
           0.43824861  0.40811206  0.28841411,
           0.41548419 -0.51071515  0.09133965,
          -0.43824861 -0.40811206 -0.28841411,
          -0.41548419  0.51071515 -0.09133965,
           0.43824861  0.40811206  0.28841411,
          -0.47508875  0.22125339  0.40882468,
          -0.43824861 -0.40811206 -0.28841411,
           0.47508875 -0.22125339 -0.40882468,
           0.59000452  0.19217504  0.23825075,
           0.11524987 -0.61875321  0.21368654,
          -0.59000452 -0.19217504 -0.23825075,
          -0.11524987  0.61875321 -0.21368654,
           0.59000452  0.19217504  0.23825075,
          -0.29415755  0.49905064  0.32591379,
          -0.59000452 -0.19217504 -0.23825075,
           0.29415755 -0.49905064 -0.32591379,
           0.59748600 -0.14927229  0.25005651,
          -0.27253566 -0.48775046  0.36003307,
          -0.59748600  0.14927229 -0.25005651,
           0.27253566  0.48775046 -0.36003307,
           0.59748600 -0.14927229  0.25005651,
           0.08774640  0.63647718  0.17028614,
          -0.59748600  0.14927229 -0.25005651,
          -0.08774640 -0.63647718 -0.17028614,
           0.41548419 -0.51071515  0.09133965,
           0.51615084  0.39503949 -0.13903998,
          -0.41548419  0.51071515 -0.09133965,
          -0.51615084 -0.39503949  0.13903998,
           0.11524987 -0.61875321  0.21368654,
          -0.58757206 -0.00213058  0.31073227,
          -0.11524987  0.61875321 -0.21368654,
           0.58757206  0.00213058 -0.31073227,
          -0.27253566 -0.48775046  0.36003307,
           0.53314892 -0.38073556 -0.11221706,
           0.27253566  0.48775046 -0.36003307,
          -0.53314892  0.38073556  0.11221706,
          -0.46557215 -0.21307432  0.42384184,
          -0.17649281  0.62903023  0.12235708,
           0.46557215  0.21307432 -0.42384184,
           0.17649281 -0.62903023 -0.12235708,
          -0.47508875  0.22125339  0.40882468,
          -0.14898935 -0.62620016  0.16575748,
           0.47508875 -0.22125339 -0.40882468,
           0.14898935  0.62620016 -0.16575748,
          -0.29415755  0.49905064  0.32591379,
           0.51615084  0.39503949 -0.13903998,
           0.29415755 -0.49905064 -0.32591379,
          -0.51615084 -0.39503949  0.13903998,
           0.08774640  0.63647718  0.17028614,
          -0.58757206 -0.00213058  0.31073227,
          -0.08774640 -0.63647718 -0.17028614,
           0.58757206  0.00213058 -0.31073227,
           0.39260453  0.53348919  0.05523561,
           0.53314892 -0.38073556 -0.11221706,
          -0.39260453 -0.53348919 -0.05523561,
          -0.53314892  0.38073556  0.11221706,
           0.63815074  0.18409574 -0.02593040,
          -0.17649281  0.62903023  0.12235708,
          -0.63815074 -0.18409574  0.02593040,
           0.17649281 -0.62903023 -0.12235708,
           0.64563223 -0.15735159 -0.01412464,
          -0.14898935 -0.62620016  0.16575748,
          -0.64563223  0.15735159  0.01412464,
           0.14898935  0.62620016 -0.16575748,
         ]
    }
    coordIndex[
      0 , 36 , 86 , 84 , -1,
      15 , 31 , 87 , 85 , -1,
      36 , 8 , 88 , 86 , -1,
      31 , 0 , 84 , 87 , -1,
      8 , 15 , 85 , 88 , -1,
      1 , 38 , 91 , 89 , -1,
      17 , 32 , 92 , 90 , -1,
      38 , 10 , 93 , 91 , -1,
      32 , 1 , 89 , 92 , -1,
      10 , 17 , 90 , 93 , -1,
      2 , 40 , 96 , 94 , -1,
      19 , 33 , 97 , 95 , -1,
      40 , 12 , 98 , 96 , -1,
      33 , 2 , 94 , 97 , -1,
      12 , 19 , 95 , 98 , -1,
      3 , 42 , 101 , 99 , -1,
      21 , 34 , 102 , 100 , -1,
      42 , 14 , 103 , 101 , -1,
      34 , 3 , 99 , 102 , -1,
      14 , 21 , 100 , 103 , -1,
      4 , 44 , 106 , 104 , -1,
      23 , 30 , 107 , 105 , -1,
      44 , 6 , 108 , 106 , -1,
      30 , 4 , 104 , 107 , -1,
      6 , 23 , 105 , 108 , -1,
      5 , 11 , 111 , 109 , -1,
      13 , 9 , 112 , 110 , -1,
      11 , 7 , 113 , 111 , -1,
      9 , 5 , 109 , 112 , -1,
      7 , 13 , 110 , 113 , -1,
      16 , 56 , 116 , 114 , -1,
      37 , 54 , 117 , 115 , -1,
      56 , 25 , 118 , 116 , -1,
      54 , 16 , 114 , 117 , -1,
      25 , 37 , 115 , 118 , -1,
      18 , 57 , 121 , 119 , -1,
      39 , 46 , 122 , 120 , -1,
      57 , 26 , 123 , 121 , -1,
      46 , 18 , 119 , 122 , -1,
      26 , 39 , 120 , 123 , -1,
      20 , 58 , 126 , 124 , -1,
      41 , 48 , 127 , 125 , -1,
      58 , 27 , 128 , 126 , -1,
      48 , 20 , 124 , 127 , -1,
      27 , 41 , 125 , 128 , -1,
      22 , 59 , 131 , 129 , -1,
      43 , 50 , 132 , 130 , -1,
      59 , 28 , 133 , 131 , -1,
      50 , 22 , 129 , 132 , -1,
      28 , 43 , 130 , 133 , -1,
      24 , 55 , 136 , 134 , -1,
      35 , 52 , 137 , 135 , -1,
      55 , 29 , 138 , 136 , -1,
      52 , 24 , 134 , 137 , -1,
      29 , 35 , 135 , 138 , -1,
      45 , 51 , 141 , 139 , -1,
      53 , 49 , 142 , 140 , -1,
      51 , 47 , 143 , 141 , -1,
      49 , 45 , 139 , 142 , -1,
      47 , 53 , 140 , 143 , -1,
      0 , 35 , 146 , 144 , -1,
      16 , 34 , 147 , 145 , -1,
      35 , 13 , 148 , 146 , -1,
      34 , 0 , 144 , 147 , -1,
      13 , 16 , 145 , 148 , -1,
      1 , 37 , 151 , 149 , -1,
      18 , 30 , 152 , 150 , -1,
      37 , 5 , 153 , 151 , -1,
      30 , 1 , 149 , 152 , -1,
      5 , 18 , 150 , 153 , -1,
      2 , 39 , 156 , 154 , -1,
      20 , 31 , 157 , 155 , -1,
      39 , 7 , 158 , 156 , -1,
      31 , 2 , 154 , 157 , -1,
      7 , 20 , 155 , 158 , -1,
      3 , 41 , 161 , 159 , -1,
      22 , 32 , 162 , 160 , -1,
      41 , 9 , 163 , 161 , -1,
      32 , 3 , 159 , 162 , -1,
      9 , 22 , 160 , 163 , -1,
      4 , 43 , 166 , 164 , -1,
      24 , 33 , 167 , 165 , -1,
      43 , 11 , 168 , 166 , -1,
      33 , 4 , 164 , 167 , -1,
      11 , 24 , 165 , 168 , -1,
      6 , 12 , 171 , 169 , -1,
      14 , 10 , 172 , 170 , -1,
      12 , 8 , 173 , 171 , -1,
      10 , 6 , 169 , 172 , -1,
      8 , 14 , 170 , 173 , -1,
      15 , 55 , 176 , 174 , -1,
      44 , 47 , 177 , 175 , -1,
      55 , 26 , 178 , 176 , -1,
      47 , 15 , 174 , 177 , -1,
      26 , 44 , 175 , 178 , -1,
      17 , 56 , 181 , 179 , -1,
      36 , 49 , 182 , 180 , -1,
      56 , 27 , 183 , 181 , -1,
      49 , 17 , 179 , 182 , -1,
      27 , 36 , 180 , 183 , -1,
      19 , 57 , 186 , 184 , -1,
      38 , 51 , 187 , 185 , -1,
      57 , 28 , 188 , 186 , -1,
      51 , 19 , 184 , 187 , -1,
      28 , 38 , 185 , 188 , -1,
      21 , 58 , 191 , 189 , -1,
      40 , 53 , 192 , 190 , -1,
      58 , 29 , 193 , 191 , -1,
      53 , 21 , 189 , 192 , -1,
      29 , 40 , 190 , 193 , -1,
      23 , 59 , 196 , 194 , -1,
      42 , 45 , 197 , 195 , -1,
      59 , 25 , 198 , 196 , -1,
      45 , 23 , 194 , 197 , -1,
      25 , 42 , 195 , 198 , -1,
      46 , 52 , 201 , 199 , -1,
      54 , 50 , 202 , 200 , -1,
      52 , 48 , 203 , 201 , -1,
      50 , 46 , 199 , 202 , -1,
      48 , 54 , 200 , 203 , -1,
      0 , 20 , 205 , 204 , -1,
      20 , 29 , 206 , 205 , -1,
      29 , 0 , 204 , 206 , -1,
      1 , 22 , 208 , 207 , -1,
      22 , 25 , 209 , 208 , -1,
      25 , 1 , 207 , 209 , -1,
      2 , 24 , 211 , 210 , -1,
      24 , 26 , 212 , 211 , -1,
      26 , 2 , 210 , 212 , -1,
      3 , 16 , 214 , 213 , -1,
      16 , 27 , 215 , 214 , -1,
      27 , 3 , 213 , 215 , -1,
      4 , 18 , 217 , 216 , -1,
      18 , 28 , 218 , 217 , -1,
      28 , 4 , 216 , 218 , -1,
      5 , 43 , 220 , 219 , -1,
      43 , 46 , 221 , 220 , -1,
      46 , 5 , 219 , 221 , -1,
      6 , 19 , 223 , 222 , -1,
      19 , 47 , 224 , 223 , -1,
      47 , 6 , 222 , 224 , -1,
      7 , 35 , 226 , 225 , -1,
      35 , 48 , 227 , 226 , -1,
      48 , 7 , 225 , 227 , -1,
      8 , 21 , 229 , 228 , -1,
      21 , 49 , 230 , 229 , -1,
      49 , 8 , 228 , 230 , -1,
      9 , 37 , 232 , 231 , -1,
      37 , 50 , 233 , 232 , -1,
      50 , 9 , 231 , 233 , -1,
      10 , 23 , 235 , 234 , -1,
      23 , 51 , 236 , 235 , -1,
      51 , 10 , 234 , 236 , -1,
      11 , 39 , 238 , 237 , -1,
      39 , 52 , 239 , 238 , -1,
      52 , 11 , 237 , 239 , -1,
      12 , 15 , 241 , 240 , -1,
      15 , 53 , 242 , 241 , -1,
      53 , 12 , 240 , 242 , -1,
      13 , 41 , 244 , 243 , -1,
      41 , 54 , 245 , 244 , -1,
      54 , 13 , 243 , 245 , -1,
      14 , 17 , 247 , 246 , -1,
      17 , 45 , 248 , 247 , -1,
      45 , 14 , 246 , 248 , -1,
      30 , 38 , 250 , 249 , -1,
      38 , 59 , 251 , 250 , -1,
      59 , 30 , 249 , 251 , -1,
      31 , 40 , 253 , 252 , -1,
      40 , 55 , 254 , 253 , -1,
      55 , 31 , 252 , 254 , -1,
      32 , 42 , 256 , 255 , -1,
      42 , 56 , 257 , 256 , -1,
      56 , 32 , 255 , 257 , -1,
      33 , 44 , 259 , 258 , -1,
      44 , 57 , 260 , 259 , -1,
      57 , 33 , 258 , 260 , -1,
      34 , 36 , 262 , 261 , -1,
      36 , 58 , 263 , 262 , -1,
      58 , 34 , 261 , 263 , -1,
      0 , 21 , 265 , 264 , -1,
      21 , 27 , 266 , 265 , -1,
      27 , 0 , 264 , 266 , -1,
      1 , 23 , 268 , 267 , -1,
      23 , 28 , 269 , 268 , -1,
      28 , 1 , 267 , 269 , -1,
      2 , 15 , 271 , 270 , -1,
      15 , 29 , 272 , 271 , -1,
      29 , 2 , 270 , 272 , -1,
      3 , 17 , 274 , 273 , -1,
      17 , 25 , 275 , 274 , -1,
      25 , 3 , 273 , 275 , -1,
      4 , 19 , 277 , 276 , -1,
      19 , 26 , 278 , 277 , -1,
      26 , 4 , 276 , 278 , -1,
      5 , 22 , 280 , 279 , -1,
      22 , 54 , 281 , 280 , -1,
      54 , 5 , 279 , 281 , -1,
      6 , 38 , 283 , 282 , -1,
      38 , 45 , 284 , 283 , -1,
      45 , 6 , 282 , 284 , -1,
      7 , 24 , 286 , 285 , -1,
      24 , 46 , 287 , 286 , -1,
      46 , 7 , 285 , 287 , -1,
      8 , 40 , 289 , 288 , -1,
      40 , 47 , 290 , 289 , -1,
      47 , 8 , 288 , 290 , -1,
      9 , 16 , 292 , 291 , -1,
      16 , 48 , 293 , 292 , -1,
      48 , 9 , 291 , 293 , -1,
      10 , 42 , 295 , 294 , -1,
      42 , 49 , 296 , 295 , -1,
      49 , 10 , 294 , 296 , -1,
      11 , 18 , 298 , 297 , -1,
      18 , 50 , 299 , 298 , -1,
      50 , 11 , 297 , 299 , -1,
      12 , 44 , 301 , 300 , -1,
      44 , 51 , 302 , 301 , -1,
      51 , 12 , 300 , 302 , -1,
      13 , 20 , 304 , 303 , -1,
      20 , 52 , 305 , 304 , -1,
      52 , 13 , 303 , 305 , -1,
      14 , 36 , 307 , 306 , -1,
      36 , 53 , 308 , 307 , -1,
      53 , 14 , 306 , 308 , -1,
      30 , 43 , 310 , 309 , -1,
      43 , 57 , 311 , 310 , -1,
      57 , 30 , 309 , 311 , -1,
      31 , 35 , 313 , 312 , -1,
      35 , 58 , 314 , 313 , -1,
      58 , 31 , 312 , 314 , -1,
      32 , 37 , 316 , 315 , -1,
      37 , 59 , 317 , 316 , -1,
      59 , 32 , 315 , 317 , -1,
      33 , 39 , 319 , 318 , -1,
      39 , 55 , 320 , 319 , -1,
      55 , 33 , 318 , 320 , -1,
      34 , 41 , 322 , 321 , -1,
      41 , 56 , 323 , 322 , -1,
      56 , 34 , 321 , 323 , -1,
      0 , 21 , 325 , 324 , -1,
      21 , 58 , 326 , 325 , -1,
      58 , 36 , 327 , 326 , -1,
      36 , 0 , 324 , 327 , -1,
      0 , 20 , 329 , 328 , -1,
      20 , 58 , 330 , 329 , -1,
      58 , 35 , 331 , 330 , -1,
      35 , 0 , 328 , 331 , -1,
      0 , 27 , 333 , 332 , -1,
      27 , 58 , 334 , 333 , -1,
      58 , 34 , 335 , 334 , -1,
      34 , 0 , 332 , 335 , -1,
      0 , 29 , 337 , 336 , -1,
      29 , 58 , 338 , 337 , -1,
      58 , 31 , 339 , 338 , -1,
      31 , 0 , 336 , 339 , -1,
      1 , 22 , 341 , 340 , -1,
      22 , 59 , 342 , 341 , -1,
      59 , 37 , 343 , 342 , -1,
      37 , 1 , 340 , 343 , -1,
      1 , 23 , 345 , 344 , -1,
      23 , 59 , 346 , 345 , -1,
      59 , 38 , 347 , 346 , -1,
      38 , 1 , 344 , 347 , -1,
      1 , 25 , 349 , 348 , -1,
      25 , 59 , 350 , 349 , -1,
      59 , 32 , 351 , 350 , -1,
      32 , 1 , 348 , 351 , -1,
      1 , 28 , 353 , 352 , -1,
      28 , 59 , 354 , 353 , -1,
      59 , 30 , 355 , 354 , -1,
      30 , 1 , 352 , 355 , -1,
      2 , 15 , 357 , 356 , -1,
      15 , 55 , 358 , 357 , -1,
      55 , 40 , 359 , 358 , -1,
      40 , 2 , 356 , 359 , -1,
      2 , 24 , 361 , 360 , -1,
      24 , 55 , 362 , 361 , -1,
      55 , 39 , 363 , 362 , -1,
      39 , 2 , 360 , 363 , -1,
      2 , 26 , 365 , 364 , -1,
      26 , 55 , 366 , 365 , -1,
      55 , 33 , 367 , 366 , -1,
      33 , 2 , 364 , 367 , -1,
      2 , 29 , 369 , 368 , -1,
      29 , 55 , 370 , 369 , -1,
      55 , 31 , 371 , 370 , -1,
      31 , 2 , 368 , 371 , -1,
      3 , 16 , 373 , 372 , -1,
      16 , 56 , 374 , 373 , -1,
      56 , 41 , 375 , 374 , -1,
      41 , 3 , 372 , 375 , -1,
      3 , 17 , 377 , 376 , -1,
      17 , 56 , 378 , 377 , -1,
      56 , 42 , 379 , 378 , -1,
      42 , 3 , 376 , 379 , -1,
      3 , 25 , 381 , 380 , -1,
      25 , 56 , 382 , 381 , -1,
      56 , 32 , 383 , 382 , -1,
      32 , 3 , 380 , 383 , -1,
      3 , 27 , 385 , 384 , -1,
      27 , 56 , 386 , 385 , -1,
      56 , 34 , 387 , 386 , -1,
      34 , 3 , 384 , 387 , -1,
      4 , 18 , 389 , 388 , -1,
      18 , 57 , 390 , 389 , -1,
      57 , 43 , 391 , 390 , -1,
      43 , 4 , 388 , 391 , -1,
      4 , 19 , 393 , 392 , -1,
      19 , 57 , 394 , 393 , -1,
      57 , 44 , 395 , 394 , -1,
      44 , 4 , 392 , 395 , -1,
      4 , 26 , 397 , 396 , -1,
      26 , 57 , 398 , 397 , -1,
      57 , 33 , 399 , 398 , -1,
      33 , 4 , 396 , 399 , -1,
      4 , 28 , 401 , 400 , -1,
      28 , 57 , 402 , 401 , -1,
      57 , 30 , 403 , 402 , -1,
      30 , 4 , 400 , 403 , -1,
      5 , 9 , 405 , 404 , -1,
      9 , 50 , 406 , 405 , -1,
      50 , 54 , 407 , 406 , -1,
      54 , 5 , 404 , 407 , -1,
      5 , 11 , 409 , 408 , -1,
      11 , 50 , 410 , 409 , -1,
      50 , 46 , 411 , 410 , -1,
      46 , 5 , 408 , 411 , -1,
      5 , 18 , 413 , 412 , -1,
      18 , 50 , 414 , 413 , -1,
      50 , 43 , 415 , 414 , -1,
      43 , 5 , 412 , 415 , -1,
      5 , 22 , 417 , 416 , -1,
      22 , 50 , 418 , 417 , -1,
      50 , 37 , 419 , 418 , -1,
      37 , 5 , 416 , 419 , -1,
      6 , 10 , 421 , 420 , -1,
      10 , 51 , 422 , 421 , -1,
      51 , 45 , 423 , 422 , -1,
      45 , 6 , 420 , 423 , -1,
      6 , 12 , 425 , 424 , -1,
      12 , 51 , 426 , 425 , -1,
      51 , 47 , 427 , 426 , -1,
      47 , 6 , 424 , 427 , -1,
      6 , 19 , 429 , 428 , -1,
      19 , 51 , 430 , 429 , -1,
      51 , 44 , 431 , 430 , -1,
      44 , 6 , 428 , 431 , -1,
      6 , 23 , 433 , 432 , -1,
      23 , 51 , 434 , 433 , -1,
      51 , 38 , 435 , 434 , -1,
      38 , 6 , 432 , 435 , -1,
      7 , 11 , 437 , 436 , -1,
      11 , 52 , 438 , 437 , -1,
      52 , 46 , 439 , 438 , -1,
      46 , 7 , 436 , 439 , -1,
      7 , 13 , 441 , 440 , -1,
      13 , 52 , 442 , 441 , -1,
      52 , 48 , 443 , 442 , -1,
      48 , 7 , 440 , 443 , -1,
      7 , 20 , 445 , 444 , -1,
      20 , 52 , 446 , 445 , -1,
      52 , 35 , 447 , 446 , -1,
      35 , 7 , 444 , 447 , -1,
      7 , 24 , 449 , 448 , -1,
      24 , 52 , 450 , 449 , -1,
      52 , 39 , 451 , 450 , -1,
      39 , 7 , 448 , 451 , -1,
      8 , 12 , 453 , 452 , -1,
      12 , 53 , 454 , 453 , -1,
      53 , 47 , 455 , 454 , -1,
      47 , 8 , 452 , 455 , -1,
      8 , 14 , 457 , 456 , -1,
      14 , 53 , 458 , 457 , -1,
      53 , 49 , 459 , 458 , -1,
      49 , 8 , 456 , 459 , -1,
      8 , 15 , 461 , 460 , -1,
      15 , 53 , 462 , 461 , -1,
      53 , 40 , 463 , 462 , -1,
      40 , 8 , 460 , 463 , -1,
      8 , 21 , 465 , 464 , -1,
      21 , 53 , 466 , 465 , -1,
      53 , 36 , 467 , 466 , -1,
      36 , 8 , 464 , 467 , -1,
      9 , 13 , 469 , 468 , -1,
      13 , 54 , 470 , 469 , -1,
      54 , 48 , 471 , 470 , -1,
      48 , 9 , 468 , 471 , -1,
      9 , 16 , 473 , 472 , -1,
      16 , 54 , 474 , 473 , -1,
      54 , 41 , 475 , 474 , -1,
      41 , 9 , 472 , 475 , -1,
      9 , 22 , 477 , 476 , -1,
      22 , 54 , 478 , 477 , -1,
      54 , 37 , 479 , 478 , -1,
      37 , 9 , 476 , 479 , -1,
      10 , 14 , 481 , 480 , -1,
      14 , 45 , 482 , 481 , -1,
      45 , 49 , 483 , 482 , -1,
      49 , 10 , 480 , 483 , -1,
      10 , 17 , 485 , 484 , -1,
      17 , 45 , 486 , 485 , -1,
      45 , 42 , 487 , 486 , -1,
      42 , 10 , 484 , 487 , -1,
      10 , 23 , 489 , 488 , -1,
      23 , 45 , 490 , 489 , -1,
      45 , 38 , 491 , 490 , -1,
      38 , 10 , 488 , 491 , -1,
      11 , 18 , 493 , 492 , -1,
      18 , 46 , 494 , 493 , -1,
      46 , 43 , 495 , 494 , -1,
      43 , 11 , 492 , 495 , -1,
      11 , 24 , 497 , 496 , -1,
      24 , 46 , 498 , 497 , -1,
      46 , 39 , 499 , 498 , -1,
      39 , 11 , 496 , 499 , -1,
      12 , 15 , 501 , 500 , -1,
      15 , 47 , 502 , 501 , -1,
      47 , 40 , 503 , 502 , -1,
      40 , 12 , 500 , 503 , -1,
      12 , 19 , 505 , 504 , -1,
      19 , 47 , 506 , 505 , -1,
      47 , 44 , 507 , 506 , -1,
      44 , 12 , 504 , 507 , -1,
      13 , 16 , 509 , 508 , -1,
      16 , 48 , 510 , 509 , -1,
      48 , 41 , 511 , 510 , -1,
      41 , 13 , 508 , 511 , -1,
      13 , 20 , 513 , 512 , -1,
      20 , 48 , 514 , 513 , -1,
      48 , 35 , 515 , 514 , -1,
      35 , 13 , 512 , 515 , -1,
      14 , 17 , 517 , 516 , -1,
      17 , 49 , 518 , 517 , -1,
      49 , 42 , 519 , 518 , -1,
      42 , 14 , 516 , 519 , -1,
      14 , 21 , 521 , 520 , -1,
      21 , 49 , 522 , 521 , -1,
      49 , 36 , 523 , 522 , -1,
      36 , 14 , 520 , 523 , -1,
      15 , 29 , 525 , 524 , -1,
      29 , 40 , 526 , 525 , -1,
      40 , 31 , 527 , 526 , -1,
      31 , 15 , 524 , 527 , -1,
      16 , 27 , 529 , 528 , -1,
      27 , 41 , 530 , 529 , -1,
      41 , 34 , 531 , 530 , -1,
      34 , 16 , 528 , 531 , -1,
      17 , 25 , 533 , 532 , -1,
      25 , 42 , 534 , 533 , -1,
      42 , 32 , 535 , 534 , -1,
      32 , 17 , 532 , 535 , -1,
      18 , 28 , 537 , 536 , -1,
      28 , 43 , 538 , 537 , -1,
      43 , 30 , 539 , 538 , -1,
      30 , 18 , 536 , 539 , -1,
      19 , 26 , 541 , 540 , -1,
      26 , 44 , 542 , 541 , -1,
      44 , 33 , 543 , 542 , -1,
      33 , 19 , 540 , 543 , -1,
      20 , 29 , 545 , 544 , -1,
      29 , 35 , 546 , 545 , -1,
      35 , 31 , 547 , 546 , -1,
      31 , 20 , 544 , 547 , -1,
      21 , 27 , 549 , 548 , -1,
      27 , 36 , 550 , 549 , -1,
      36 , 34 , 551 , 550 , -1,
      34 , 21 , 548 , 551 , -1,
      22 , 25 , 553 , 552 , -1,
      25 , 37 , 554 , 553 , -1,
      37 , 32 , 555 , 554 , -1,
      32 , 22 , 552 , 555 , -1,
      23 , 28 , 557 , 556 , -1,
      28 , 38 , 558 , 557 , -1,
      38 , 30 , 559 , 558 , -1,
      30 , 23 , 556 , 559 , -1,
      24 , 26 , 561 , 560 , -1,
      26 , 39 , 562 , 561 , -1,
      39 , 33 , 563 , 562 , -1,
      33 , 24 , 560 , 563 , -1,
    ]
    colorIndex[
               15 , 15 , 15 , 15 , 15 , 15 , 15 , 15 , 15 , 15 , 15 , 15 , 15 , 15 , 15 , 15 , 15 , 15 , 15 , 15 , 15 , 15 , 15 , 15 , 15 , 15 , 15 , 15 , 15 , 15 , 15 , 15 , 15 , 15 , 15 , 15 , 15 , 15 , 15 , 15 , 15 , 15 , 15 , 15 , 15 , 15 , 15 , 15 , 15 , 15 , 15 , 15 , 15 , 15 , 15 , 15 , 15 , 15 , 15 , 15 , 15 , 15 , 15 , 15 , 15 , 15 , 15 , 15 , 15 , 15 , 15 , 15 , 15 , 15 , 15 , 15 , 15 , 15 , 15 , 15 , 15 , 15 , 15 , 15 , 15 , 15 , 15 , 15 , 15 , 15 , 15 , 15 , 15 , 15 , 15 , 15 , 15 , 15 , 15 , 15 , 15 , 15 , 15 , 15 , 15 , 15 , 15 , 15 , 15 , 15 , 15 , 15 , 15 , 15 , 15 , 15 , 15 , 15 , 15 , 15 , 3 , 3 , 3 , 3 , 3 , 3 , 3 , 3 , 3 , 3 , 3 , 3 , 3 , 3 , 3 , 3 , 3 , 3 , 3 , 3 , 3 , 3 , 3 , 3 , 3 , 3 , 3 , 3 , 3 , 3 , 3 , 3 , 3 , 3 , 3 , 3 , 3 , 3 , 3 , 3 , 3 , 3 , 3 , 3 , 3 , 3 , 3 , 3 , 3 , 3 , 3 , 3 , 3 , 3 , 3 , 3 , 3 , 3 , 3 , 3 , 3 , 3 , 3 , 3 , 3 , 3 , 3 , 3 , 3 , 3 , 3 , 3 , 3 , 3 , 3 , 3 , 3 , 3 , 3 , 3 , 3 , 3 , 3 , 3 , 3 , 3 , 3 , 3 , 3 , 3 , 3 , 3 , 3 , 3 , 3 , 3 , 3 , 3 , 3 , 3 , 3 , 3 , 3 , 3 , 3 , 3 , 3 , 3 , 3 , 3 , 3 , 3 , 3 , 3 , 3 , 3 , 3 , 3 , 3 , 3 , 4 , 4 , 4 , 4 , 4 , 4 , 4 , 4 , 4 , 4 , 4 , 4 , 4 , 4 , 4 , 4 , 4 , 4 , 4 , 4 , 4 , 4 , 4 , 4 , 4 , 4 , 4 , 4 , 4 , 4 , 4 , 4 , 4 , 4 , 4 , 4 , 4 , 4 , 4 , 4 , 4 , 4 , 4 , 4 , 4 , 4 , 4 , 4 , 4 , 4 , 4 , 4 , 4 , 4 , 4 , 4 , 4 , 4 , 4 , 4 , 4 , 4 , 4 , 4 , 4 , 4 , 4 , 4 , 4 , 4 , 4 , 4 , 4 , 4 , 4 , 4 , 4 , 4 , 4 , 4 , 4 , 4 , 4 , 4 , 4 , 4 , 4 , 4 , 4 , 4 , 4 , 4 , 4 , 4 , 4 , 4 , 4 , 4 , 4 , 4 , 4 , 4 , 4 , 4 , 4 , 4 , 4 , 4 , 4 , 4 , 4 , 4 , 4 , 4 , 4 , 4 , 4 , 4 , 4 , 4 , 4 , 4 , 4 , 4 , 4 , 4 , 4 , 4 , 4 , 4 , 4 , 4 , 4 , 4 , 4 , 4 , 4 , 4 , 4 , 4 , 4 , 4 , 4 , 4 , 4 , 4 , 4 , 4 , 4 , 4 , 4 , 4 , 4 , 4 , 4 , 4 , 4 , 4 , 4 , 4 , 4 , 4 , 4 , 4 , 4 , 4 , 4 , 4 , 4 , 4 , 4 , 4 , 4 , 4 , 4 , 4 , 4 , 4 , 4 , 4 , 4 , 4 , 4 , 4 , 4 , 4 , 4 , 4 , 4 , 4 , 4 , 4 , 4 , 4 , 4 , 4 , 4 , 4 , 4 , 4 , 4 , 4 , 4 , 4 , 4 , 4 , 4 , 4 , 4 , 4 , 4 , 4 , 4 , 4 , 4 , 4 , 4 , 4 , 4 , 4 , 4 , 4 , 4 , 4 , 4 , 4 , 4 , 4 , 4 , 4 , 4 , 4 , 4 , 4 , 4 , 4 , 4 , 4 , 4 , 4 , 
    ]
    }
    appearance Appearance {
      material Material {
        shininess 1
        specularColor 1 1 1
      }
    }
  }
]
}
